<svg height="64px" viewBox="0 0 53 36" fill="none" xmlns="http://www.w3.org/2000/svg"><path d="M10.8221 1.22641C10.9999 1.22641 11.1898 1.32949 11.3864 1.53235C11.4248 1.572 11.4423 1.5905 11.5083 1.8112C11.5184 1.84556 11.5258 1.87265 11.5332 1.89776C11.5662 2.01604 11.5938 2.11053 11.6746 2.33322C11.6975 2.39665 11.7218 2.45018 11.7386 2.48784C11.8531 2.88035 12.0127 3.40104 12.3508 3.892C12.6902 4.38495 13.1744 4.75697 13.7919 4.99683C14.3704 5.22216 14.9899 5.46664 15.6021 5.73426C15.8156 5.82743 16.0412 6.00981 16.3025 6.22192C16.4089 6.30848 16.5193 6.39769 16.6371 6.48755C18.1443 7.63731 19.6144 8.47254 21.1316 9.04081C22.5909 9.58728 23.9674 9.85291 25.3406 9.85291C25.3762 9.85291 25.4119 9.85291 25.4476 9.85225C26.6282 9.84036 27.8067 9.61966 28.9515 9.19808C29.6189 8.95227 30.2761 8.68201 30.9125 8.42034C31.1974 8.30338 31.4917 8.18246 31.7806 8.06616C32.1267 7.92673 32.4769 7.78467 32.8156 7.64722C33.6473 7.3089 34.5073 6.95935 35.3538 6.63953C35.8387 6.45649 36.3309 6.36333 36.8185 6.36333C36.906 6.36333 36.9943 6.36663 37.0818 6.37258C37.5034 6.40165 37.9344 6.46443 38.391 6.53116C38.4798 6.54438 38.5687 6.55693 38.6583 6.57015C39.1142 6.63557 39.5789 6.70561 40.0287 6.77301C40.4294 6.83314 40.8436 6.89591 41.2537 6.95538C41.3231 6.9653 41.3945 6.97058 41.4658 6.97058C41.7467 6.97058 42.0362 6.89063 42.2807 6.7446C42.2807 6.7446 42.2894 6.74526 42.3036 6.75649C42.3635 6.80605 42.4053 6.85759 42.4416 6.92895C42.4888 7.02212 42.5359 7.10803 42.581 7.19128C42.6127 7.25009 42.6443 7.30758 42.6726 7.36176C42.5878 7.64656 42.5022 7.90691 42.3804 8.07475C42.2342 8.27695 42.0531 8.48245 41.8611 8.69985C41.7951 8.77452 41.7291 8.84984 41.6638 8.92517C41.5527 9.05337 41.4396 9.17957 41.3197 9.31305C41.1648 9.48552 41.0045 9.66393 40.8463 9.85027C39.2509 11.7309 37.5364 13.215 35.605 14.3879C33.652 15.5733 31.5233 16.3742 29.2788 16.768C28.1629 16.9636 27.0571 17.0627 25.9924 17.0627C25.88 17.0627 25.7662 17.0614 25.6544 17.0594C25.5439 17.0574 25.4294 17.0521 25.3082 17.0475C25.2496 17.0449 25.1911 17.0429 25.1331 17.0402C22.5263 16.9299 20.207 16.435 18.0446 15.5277C16.6331 14.9356 15.3711 14.1057 14.2936 13.061C13.0532 11.8584 12.2423 10.3452 11.8834 8.56307C11.6733 7.52035 11.6618 6.4109 11.8477 5.17061C11.8962 4.84551 11.8349 4.49463 11.6706 4.15698C11.2477 3.28871 10.7972 2.36692 10.3372 1.44975C10.4867 1.30835 10.6618 1.22641 10.8221 1.22641ZM10.8221 0C10.2234 0 9.66445 0.305941 9.27588 0.771792C8.99237 1.11209 8.9486 1.46363 9.14928 1.86208C9.62135 2.79973 10.082 3.74267 10.5419 4.68626C10.5871 4.77877 10.6248 4.89573 10.6099 4.99286C10.4194 6.26553 10.4012 7.53621 10.6564 8.80161C11.0551 10.78 11.9487 12.5132 13.4141 13.9339C14.6128 15.0962 15.9994 16.0041 17.5523 16.6557C19.9565 17.6647 22.4771 18.1563 25.0806 18.266C25.2631 18.2726 25.4456 18.2825 25.6288 18.2858C25.75 18.2884 25.8705 18.2891 25.9918 18.2891C27.1689 18.2891 28.3373 18.1788 29.4983 17.9752C31.9186 17.551 34.1726 16.6993 36.2622 15.4306C38.3869 14.1407 40.2112 12.5152 41.8066 10.6346C42.0699 10.324 42.3494 10.0267 42.6161 9.71877C42.8827 9.41151 43.1622 9.11217 43.3999 8.78443C43.6935 8.37871 43.8154 7.89237 43.9555 7.4219C43.9885 7.31089 43.9521 7.16221 43.9037 7.04922C43.8047 6.81926 43.6733 6.60385 43.5589 6.37984C43.4471 6.16047 43.3003 5.97545 43.1056 5.81554C42.8666 5.61928 42.5743 5.51686 42.28 5.51686C42.0578 5.51686 41.8349 5.57501 41.6328 5.69461C41.5857 5.72237 41.5217 5.74285 41.4645 5.74285C41.4544 5.74285 41.4436 5.74219 41.4342 5.74087C40.5682 5.61532 39.7035 5.4792 38.8368 5.35497C38.2819 5.27568 37.7263 5.18647 37.168 5.14815C37.0508 5.14022 36.9343 5.13625 36.8178 5.13625C36.1619 5.13625 35.5174 5.26246 34.9039 5.49374C33.6958 5.95034 32.5045 6.44923 31.3058 6.93094C30.3751 7.30494 29.4525 7.70273 28.5117 8.04964C27.5238 8.41373 26.4948 8.61461 25.4342 8.62584C25.4025 8.62584 25.3715 8.6265 25.3399 8.6265C24.0381 8.6265 22.7903 8.34963 21.5768 7.89502C20.0541 7.32476 18.685 6.4968 17.4035 5.51951C16.9846 5.19969 16.6001 4.82833 16.1092 4.61424C15.497 4.34728 14.8748 4.10015 14.2519 3.85764C13.897 3.71954 13.6 3.518 13.3865 3.20677C13.1548 2.87043 13.0377 2.48586 12.9259 2.10129C12.9097 2.04644 12.8727 1.97838 12.8518 1.92155C12.7548 1.6546 12.7555 1.62817 12.7084 1.46826C12.6134 1.1491 12.5245 0.927737 12.2935 0.688534C11.8241 0.20286 11.3103 0 10.8221 0Z" fill="#020203"></path><path d="M42.2558 6.76627L42.5514 8.22726C42.5373 8.22924 41.416 7.02596 41.3911 7.03058C40.2462 7.44423 39.1236 8.31184 37.9532 8.9713C36.9619 9.52966 35.9828 10.1078 34.9982 10.6788C33.7692 11.3917 32.4883 11.9897 31.1125 12.3836C29.1845 12.9353 27.214 13.1256 25.2139 13.0754C24.0718 13.047 22.9425 12.9221 21.8293 12.6618C20.3572 12.3175 18.9948 11.74 17.782 10.8413C16.0486 9.55675 14.5636 8.03365 13.2808 6.31826C12.9972 5.93897 12.7312 5.54647 12.4457 5.14405C12.1124 4.52094 10.8867 1.55469 10.8867 1.55469" stroke="#020203" stroke-width="1.26073" stroke-miterlimit="10" stroke-linecap="round" stroke-linejoin="round"></path><path d="M3.0008 24.6669V27.6114H7.65219C7.77138 27.6114 7.87442 27.6953 7.89529 27.8109C7.96061 28.179 7.97543 28.547 7.97543 28.9157C7.97543 29.2838 7.96129 29.6518 7.89529 30.0206C7.87442 30.1362 7.77206 30.2201 7.65219 30.2201H3.0008V34.4789C3.0008 34.5991 2.91124 34.7002 2.79002 34.7181C2.357 34.7808 1.92399 34.8244 1.4903 34.8244C1.05728 34.8244 0.639084 34.7808 0.210783 34.7181C0.0902389 34.7002 0 34.5991 0 34.4789V22.2412C0 22.1077 0.110442 22 0.245802 22H8.23672C8.35592 22 8.45761 22.0833 8.47916 22.1982C8.54919 22.5716 8.57882 22.9548 8.57882 23.3235C8.57882 23.7114 8.54919 24.0848 8.47848 24.468C8.45693 24.583 8.35524 24.6676 8.23605 24.6676H3.0008V24.6669Z" fill="#020203"></path><path d="M20.4101 34.2601C20.4997 34.4048 20.4141 34.5912 20.2444 34.6229C19.6087 34.7418 18.7939 34.7834 18.0497 34.7834C17.8376 34.7834 17.612 34.7834 17.416 34.7729C17.3339 34.7682 17.2598 34.7233 17.2187 34.6539L14.626 30.3172H14.4852C14.0219 30.3172 13.5189 30.3172 13.0151 30.2974V34.4828C13.0151 34.6017 12.9276 34.7028 12.8077 34.722C12.3882 34.7887 11.9565 34.8033 11.5248 34.8033C11.0864 34.8033 10.6642 34.7881 10.2029 34.7193C10.083 34.7015 9.99414 34.5997 9.99414 34.4801V22.3945C9.99414 22.2782 10.0776 22.179 10.1941 22.1572C11.4333 21.9233 12.9882 21.7812 14.3445 21.7812C18.2511 21.7812 19.8626 23.3817 19.8626 25.8517C19.8626 27.6893 18.9561 28.954 17.5669 29.6657L20.4101 34.2601ZM13.0151 27.867C13.5586 27.8869 14.1027 27.8869 14.6058 27.8869C16.1769 27.8869 16.8012 27.0569 16.8012 26.0294C16.8012 24.9424 16.0759 24.2704 14.5856 24.2704C14.0421 24.2704 13.5384 24.2902 13.0145 24.3299V27.867H13.0151Z" fill="#020203"></path><path d="M30.6969 33.3621C30.6969 33.7309 30.668 34.1141 30.5973 34.4874C30.5757 34.6024 30.4733 34.6857 30.3548 34.6857H22.0622C21.9262 34.6857 21.8164 34.5773 21.8164 34.4445V22.2412C21.8164 22.1077 21.9268 22 22.0622 22H30.1629C30.2774 22 30.3777 22.0773 30.4026 22.1863C30.4861 22.5531 30.5158 22.9528 30.5158 23.3235C30.5158 23.6949 30.4861 24.0669 30.4026 24.4383C30.3777 24.5486 30.2774 24.6279 30.1616 24.6279H24.8165V26.9202H29.5494C29.6679 26.9202 29.7703 27.0034 29.7918 27.1184C29.8619 27.4871 29.8908 27.8558 29.8908 28.2246C29.8908 28.5933 29.8619 28.9475 29.7918 29.3115C29.7696 29.4259 29.6679 29.5091 29.5494 29.5091H24.8159V32.0584H30.3548C30.4733 32.0584 30.5757 32.1417 30.5973 32.2567C30.668 32.624 30.6969 32.9928 30.6969 33.3621Z" fill="#020203"></path><path d="M31.6312 33.3051C31.7551 32.4077 32.2178 31.6438 32.8515 31.1912C32.9377 31.1298 33.0555 31.1317 33.141 31.1945C33.9916 31.8163 35.2785 32.2954 36.7095 32.2954C38.1594 32.2954 38.7231 31.8408 38.7231 31.1489C38.7231 30.4967 38.4005 30.1214 36.125 29.5485C33.9498 29.0344 32.0366 28.2045 32.0164 25.6558C32.0164 23.2255 33.9902 21.6641 36.9708 21.6641C39.1029 21.6641 40.5568 22.311 41.3508 22.8852C41.4222 22.9367 41.4592 23.0226 41.4491 23.1092C41.3549 23.9253 40.9151 24.7942 40.2147 25.2699C40.1333 25.3255 40.0248 25.3261 39.942 25.2719C39.1985 24.7929 38.1184 24.3706 36.7695 24.3706C35.5815 24.3706 34.9371 24.8054 34.9371 25.3981C34.9371 26.0305 35.2192 26.3074 37.5352 26.8604C39.9521 27.4532 41.6034 28.4609 41.6438 30.7333C41.7044 33.4802 39.7508 35.0013 36.6496 35.0013C34.1559 35.0013 32.572 34.2182 31.7181 33.5264C31.6514 33.4742 31.6198 33.3896 31.6312 33.3051Z" fill="#020203"></path><path d="M52.6451 24.6286H49.1749V34.4855C49.1749 34.6037 49.0873 34.7048 48.9681 34.724C48.5338 34.7954 48.0994 34.8251 47.6644 34.8251C47.23 34.8251 46.8112 34.7954 46.3808 34.724C46.2616 34.7042 46.1741 34.6037 46.1741 34.4855V24.6286H42.6898C42.5706 24.6286 42.4689 24.5453 42.4473 24.4304C42.3773 24.0577 42.3477 23.6764 42.3477 23.3242C42.3477 22.939 42.3766 22.5676 42.4466 22.1982C42.4682 22.0839 42.5706 22 42.6891 22H52.6464C52.7622 22 52.8626 22.0786 52.8875 22.1896C52.9717 22.561 53.0006 22.933 53.0006 23.3044C53.0006 23.6777 52.971 24.0511 52.8862 24.437C52.8612 24.5486 52.7609 24.6286 52.6451 24.6286Z" fill="#020203"></path></svg>
